<svg id="icons" xmlns="http://www.w3.org/2000/svg" viewBox="0 0 340 340"><path d="M51.02,26.39S19.405,27.908,19.405,64.724V256.113l31.615-21.6Z" style="fill:#4e73a8"/><path d="M41.01,234.508a21.6,21.6,0,0,0,0,43.21H210.432c-21.268-5.75-21.171-37.522,0-43.21Z" style="fill:#eaf5ff"/><path d="M210.432,234.508H51.02V26.39H200.079a10.353,10.353,0,0,1,10.353,10.352Z" style="fill:#88b0ea"/><path d="M149.062,260.113H44.016c-5.223-.079-5.285-7.908,0-8H149.062C154.286,252.192,154.348,260.02,149.062,260.113Z" style="fill:#c9d4ff"/><path d="M317.282,310.3a11.337,11.337,0,0,1-16.034,0L254.1,263.149l16.033-16.034,47.148,47.148A11.338,11.338,0,0,1,317.282,310.3Z" style="fill:#4e73a8"/><path d="M295.283,195.83a89.451,89.451,0,0,1-89.451,89.452c-118.413-4.093-118.382-174.829,0-178.9A89.451,89.451,0,0,1,295.283,195.83Z" style="fill:#ffd071"/><path d="M273.716,195.83a67.884,67.884,0,0,1-67.884,67.884c-89.862-3.105-89.839-132.676,0-135.768A67.884,67.884,0,0,1,273.716,195.83Z" style="fill:#fff"/><path d="M209.832,195.83c-.09,5.258-7.911,5.257-8,0C201.922,190.572,209.743,190.573,209.832,195.83Z" style="fill:#ffd071"/><path d="M187.184,195.83c-.09,5.258-7.911,5.257-8,0C179.274,190.572,187.1,190.573,187.184,195.83Z" style="fill:#ffd071"/><path d="M232.48,195.83c-.09,5.258-7.911,5.257-8,0C224.569,190.572,232.391,190.573,232.48,195.83Z" style="fill:#ffd071"/><rect x="55.471" y="252.113" width="32.312" height="25.605" style="fill:#c9d4ff"/><polygon points="65.708 252.113 65.708 307.073 87.783 293.783 109.859 307.073 109.859 252.113 65.708 252.113" style="fill:#f47676"/><path d="M309.265,317.61a15.289,15.289,0,0,1-10.845-4.485L266.935,281.64c-3.645-3.773,1.864-9.316,5.657-5.657l31.484,31.485c7.009,6.657,17.045-3.348,10.378-10.377l-42.026-42.025a4,4,0,1,1,5.656-5.657l42.026,42.026C329.787,300.855,322.624,317.852,309.265,317.61Z" style="fill:#383a49"/><path d="M19.405,260.113a4,4,0,0,1-4-4V64.724c0-40.164,35.069-42.312,35.424-42.329a4.027,4.027,0,0,1,4.191,4V215.652a4,4,0,0,1-8,0V31.062c-7.789,1.854-23.615,8.694-23.615,33.662V256.113A4,4,0,0,1,19.405,260.113Z" style="fill:#383a49"/><path d="M169.785,281.718H109.859a4,4,0,1,1,0-8h59.926C175.024,273.8,175.058,281.627,169.785,281.718Z" style="fill:#383a49"/><path d="M48.614,281.718h-7.6a25.605,25.605,0,0,1,0-51.21h65.359a4,4,0,0,1,0,8H41.01a17.6,17.6,0,1,0,0,35.21h7.6C53.872,273.8,53.869,281.634,48.614,281.718Z" style="fill:#383a49"/><path d="M210.432,92.612a4,4,0,0,1-4-4V36.742a6.36,6.36,0,0,0-6.353-6.352H51.02c-5.185-.092-5.347-7.86,0-8H200.079a14.369,14.369,0,0,1,14.353,14.352v51.87A4,4,0,0,1,210.432,92.612Z" style="fill:#383a49"/><path d="M65.708,311.073a4.023,4.023,0,0,1-4-4v-50.96a4,4,0,0,1,4-4h44.151a4,4,0,0,1,4,4v50.96a4,4,0,0,1-6.4,3.2l-19.672-14.8-19.67,14.8A4,4,0,0,1,65.708,311.073Zm22.075-24.608a3.989,3.989,0,0,1,2.4.8l15.672,11.79V260.113H69.708v38.945l15.67-11.789A3.994,3.994,0,0,1,87.783,286.465Z" style="fill:#383a49"/><path d="M205.832,289.282a93.558,93.558,0,0,1-93.451-93.452c4.39-123.684,182.531-123.652,186.9,0A93.557,93.557,0,0,1,205.832,289.282Zm0-178.9a85.548,85.548,0,0,0-85.451,85.451c4.014,113.1,166.905,113.068,170.9,0A85.547,85.547,0,0,0,205.832,110.379Z" style="fill:#383a49"/><path d="M205.832,267.714a71.965,71.965,0,0,1-71.884-71.884c3.377-95.139,140.405-95.115,143.768,0A71.965,71.965,0,0,1,205.832,267.714Zm0-135.768a63.957,63.957,0,0,0-63.884,63.884c3,84.552,124.779,84.53,127.768,0A63.957,63.957,0,0,0,205.832,131.946Z" style="fill:#383a49"/></svg>