<?xml version="1.0" encoding="utf-8"?>
<!-- Generator: Adobe Illustrator 21.0.0, SVG Export Plug-In . SVG Version: 6.00 Build 0)  -->
<svg version="1.1" id="Layer_1" xmlns="http://www.w3.org/2000/svg" xmlns:xlink="http://www.w3.org/1999/xlink" x="0px" y="0px"
	 viewBox="0 0 512 512" style="enable-background:new 0 0 512 512;" xml:space="preserve">
<style type="text/css">
	.st0{fill:#71CCE0;}
	.st1{fill:#DFDFDF;}
	.st2{fill:#4A555F;}
	.st3{fill:#FFD452;}
	.st4{fill:#F58E6F;}
	.st5{fill:#FFFFFF;}
	.st6{fill:none;}
</style>
<g>
	<g>
		<g>
			<path class="st1" d="M169.218,304.959l-22.881-1.906c-7.067-0.572-13.648-3.724-18.527-8.873l-25.239-26.618l-1.078-1.3
				c-1.833-2.917-5.27-4.524-9.678-4.524c-5.567,0-11.779,2.641-16.62,7.064l-0.667,0.609l-42.425,27.223
				c-1.106,0.71-2.052,1.678-2.735,2.802l-15.232,25.03c-0.993,1.63-0.512,3.715,1.094,4.747c0.573,0.369,1.204,0.556,1.873,0.556
				c1.199,0,2.301-0.599,2.946-1.604l17.395-27.073l30.084-19.303l-17.161,69.187c-0.52,2.096-0.434,4.279,0.25,6.324l20.606,50.765
				c2.243,5.525,3.588,11.342,4.001,17.29l2.61,37.684c0.218,3.169,2.88,5.652,6.057,5.652c1.897,0,3.111-1,3.666-1.597
				c0.554-0.596,1.464-1.879,1.327-3.772l-3.242-44.621c-0.221-3.055-0.844-6.073-1.849-8.969L65.353,356.63l39.5,5.218
				c12.749,1.685,23.086,11.272,25.723,23.858l3.614,17.248c0.637,3.039,3.353,5.245,6.458,5.245c2.741,0,4.392-1.536,5.132-2.451
				c0.74-0.915,1.894-2.851,1.318-5.532l-5.676-26.43c-2.416-11.253-11.312-19.759-22.662-21.67l-33.898-5.708l17.189-69.297
				l27.516,30.278c1.311,1.451,3.182,2.349,5.157,2.463l34.226,2.064c1.813,0,3.336-1.433,3.465-3.26l0.017-0.223
				C172.431,306.641,171.003,305.115,169.218,304.959z"/>
		</g>
	</g>
	<g>
		<g>
			<polygon class="st2" points="391.158,176.97 391.158,237.292 319.502,237.292 319.502,298.3 251.308,298.3 251.308,355.494 
				182.909,355.494 182.909,415.817 111.252,415.817 111.252,476.824 48.456,476.824 48.456,482.797 117.225,482.797 
				117.225,421.79 188.881,421.79 188.881,361.467 257.281,361.467 257.281,304.273 325.475,304.273 325.475,243.265 
				397.131,243.265 397.131,182.943 462.545,182.943 462.545,176.97 			"/>
		</g>
	</g>
	<g>
		<g>
			<g>
				<path class="st2" d="M122.245,216.338c-3.499-5.807-9.05-9.904-15.629-11.536c-13.584-3.373-27.377,4.938-30.748,18.524
					c-3.369,13.584,4.941,27.377,18.525,30.747c2.042,0.506,4.106,0.757,6.157,0.757c4.559,0,9.048-1.238,13.054-3.651
					c5.807-3.499,9.904-9.05,11.536-15.63C126.772,228.967,125.744,222.145,122.245,216.338z M119.342,234.11
					c-1.247,5.032-4.38,9.276-8.821,11.952c-4.441,2.675-9.66,3.46-14.689,2.214c-10.388-2.577-16.743-13.125-14.166-23.512
					c2.189-8.825,10.13-14.738,18.839-14.738c1.542,0,3.11,0.186,4.672,0.573c5.032,1.248,9.277,4.381,11.952,8.822
					C119.805,223.861,120.59,229.078,119.342,234.11z"/>
			</g>
		</g>
	</g>
	<g>
		<g>
			<path class="st3" d="M110.603,223.351c-1.625-2.698-4.204-4.601-7.26-5.359c-0.943-0.234-1.904-0.352-2.856-0.352
				c-5.419,0-10.119,3.683-11.427,8.957c-1.565,6.31,2.295,12.718,8.605,14.283c0.942,0.234,1.904,0.352,2.856,0.352
				c5.419,0,10.118-3.683,11.426-8.958C112.707,229.218,112.229,226.049,110.603,223.351z"/>
		</g>
	</g>
	<g>
		<g>
			<path class="st2" d="M113.027,259.038c-3.301-5.263-8.695-8.915-15.189-10.28l-1.229,5.844c4.892,1.03,8.925,3.732,11.358,7.609
				c2.601,4.148,3.28,9.474,1.909,14.998l-5.392,21.736l5.798,1.438l5.392-21.736C117.438,271.536,116.498,264.572,113.027,259.038z
				"/>
		</g>
	</g>
	<g>
		<g>
			<g>
				<path class="st2" d="M170.357,291.416l-22.924-1.91c-3.721-0.301-7.187-1.962-9.76-4.677l-25.144-26.517
					c-4.421-6.472-11.919-10.165-20.715-10.165c-8.925,0-18.24,3.805-25.597,10.45l-41.454,26.599
					c-2.834,1.818-5.257,4.3-7.006,7.176l-15.233,25.03c-4.859,7.985-2.505,18.196,5.357,23.247
					c3.838,2.466,8.408,3.292,12.865,2.321c4.457-0.97,8.271-3.618,10.737-7.456l14.196-22.095l-8.506,34.288
					c-1.178,4.752-0.938,9.703,0.743,14.447l20.711,51.026c1.702,4.194,2.723,8.607,3.035,13.117l2.609,37.684
					c0.712,10.264,9.329,18.305,19.618,18.305c5.148,0,10.111-2.162,13.618-5.932c3.505-3.77,5.303-8.878,4.93-14.012l-3.241-44.62
					c-0.308-4.24-1.172-8.427-2.566-12.443L85.421,372.99l17.652,2.332c7.038,0.93,12.745,6.223,14.2,13.171l3.613,17.248
					c1.949,9.299,10.26,16.049,19.761,16.049c6.128,0,11.852-2.734,15.704-7.501c3.852-4.766,5.323-10.937,4.035-16.928
					l-5.676-26.43c-3.594-16.731-16.819-29.377-33.695-32.219l-19.43-3.272l7.527-30.349l10.369,11.409
					c3.74,4.139,8.864,6.595,14.423,6.918l33.998,2.057c9.28,0.558,17.403-6.549,18.078-15.985c0.022-0.365,0.042-0.712,0.042-1.058
					C186.022,299.653,179.142,292.179,170.357,291.416z M180.016,309.195c-0.433,6.055-5.728,10.686-11.752,10.318l-34.006-2.057
					c-3.931-0.228-7.702-2.036-10.35-4.966l-17.897-19.695L94.236,340.26l25.788,4.342c14.447,2.433,25.77,13.26,28.846,27.583
					l5.677,26.43c0.906,4.219-0.129,8.564-2.842,11.92c-2.712,3.357-6.743,5.282-11.058,5.282c-6.69,0-12.542-4.753-13.914-11.301
					l-3.613-17.248c-1.975-9.426-9.717-16.606-19.265-17.867l-27.253-3.601l14.386,41.435c1.223,3.524,1.981,7.197,2.251,10.917
					l3.241,44.619c0.257,3.537-0.931,6.915-3.346,9.512c-2.415,2.597-5.699,4.027-9.245,4.027c-7.164,0-13.163-5.598-13.658-12.744
					l-2.609-37.683c-0.356-5.141-1.52-10.171-3.46-14.951l-20.664-50.9c-1.241-3.51-1.423-7.276-0.527-10.89l12.551-50.599
					l-12.568,8.063l-16.496,25.676c-1.604,2.496-4.084,4.218-6.983,4.849c-2.895,0.632-5.87,0.094-8.365-1.509
					c-5.113-3.285-6.643-9.925-3.484-15.117l15.234-25.031c1.28-2.106,3.053-3.922,5.129-5.253l41.664-26.735l0.402-0.309
					c6.298-5.757,14.229-9.059,21.759-9.059c7.019,0,12.897,2.948,16.129,8.088l0.829-0.526l-0.673,0.638l25.239,26.618
					c3.586,3.786,8.421,6.102,13.606,6.522l22.896,1.907c5.725,0.497,10.209,5.358,10.209,11.066
					C180.05,308.66,180.034,308.888,180.016,309.195z"/>
			</g>
		</g>
	</g>
	<g>
		<g>
			
				<rect x="42.488" y="296.679" transform="matrix(0.8462 -0.5328 0.5328 0.8462 -150.5071 77.8241)" class="st2" width="34.177" height="5.973"/>
		</g>
	</g>
	<g>
		<g>
			<g>
				<path class="st2" d="M341.832,37.572l16.532,16.532l-18.675,18.676h34.402v38.546h5.973V37.572H341.832z M374.092,66.806
					h-19.983l12.702-12.703l-10.559-10.559h17.841V66.806z"/>
			</g>
		</g>
	</g>
	<g>
		<g>
			<polygon class="st4" points="488.633,278.981 445.365,277.179 457.136,288.568 278.41,471.895 323.492,471.895 480.085,310.796 
				491.857,322.186 			"/>
		</g>
	</g>
	<g>
		<g>
			<g>
				<path class="st2" d="M504.396,262.704l-102.713-4.276l31.519,30.52L239.279,487.799h92.384L480.466,334.72L512,365.276
					L504.396,262.704z M480.341,326.281L329.14,481.826h-75.693l188.217-193l-24.558-23.778l81.726,3.402l6.053,81.612
					L480.341,326.281z"/>
			</g>
		</g>
	</g>
	<g>
		<g>
			<path class="st1" d="M376.197,121.892l-22.881-1.907c-7.067-0.572-13.648-3.724-18.579-8.928l-17.716-18.957
				c-0.276-0.294-0.588-0.543-0.928-0.74l-2.703-1.56l-1.427-2.774c-1.676-3.258-5.336-5.126-10.039-5.126
				c-3.121,0-6.504,0.829-9.735,2.376c-4.24,2.053-8.366,4.88-12.734,7.874c-1.108,0.759-2.212,1.515-3.306,2.252l-3.368,2.275
				c-7.274,4.916-14.795,9.999-22.414,14.896c-1.373,0.873-6.822,4.372-8.117,5.195c-1.127,0.728-2.086,1.708-2.764,2.82
				l-15.228,25.028c-0.996,1.637-0.517,3.73,1.074,4.754c0.579,0.371,1.214,0.559,1.888,0.559c1.196,0,2.292-0.596,2.94-1.609
				l17.411-27.076l30.059-19.29l-17.146,69.192c-0.52,2.093-0.433,4.266,0.253,6.299l20.592,50.765
				c2.237,5.484,3.583,11.305,4.006,17.313l2.606,37.657c0.228,3.229,2.838,5.664,6.073,5.664c1.893,0,3.107-1.002,3.664-1.599
				c0.553-0.596,1.464-1.878,1.326-3.761l-3.244-44.605c-0.23-3.093-0.853-6.103-1.849-8.949l-0.381-1.09l-6.311-52.334
				l28.132,5.542c12.562,1.825,22.718,11.351,25.33,23.805l3.629,17.245c0.638,3.045,3.357,5.255,6.462,5.255
				c2.736,0,4.385-1.534,5.124-2.448c0.741-0.916,1.897-2.852,1.326-5.523l-5.684-26.435c-2.413-11.262-11.303-19.767-22.662-21.671
				l-33.892-5.724l17.148-69.082l24.414,26.851c1.311,1.452,3.184,2.35,5.16,2.464l34.213,2.063c1.806,0,3.366-1.484,3.482-3.344
				l0.013-0.139C379.411,123.574,377.984,122.047,376.197,121.892z"/>
		</g>
	</g>
	<g>
		<g>
			<g>
				<path class="st2" d="M316.731,24.958c-6.58-1.634-13.406-0.604-19.212,2.894c-5.808,3.499-9.904,9.05-11.536,15.63
					c-1.633,6.58-0.605,13.403,2.895,19.21c3.498,5.807,9.049,9.905,15.628,11.537c2.045,0.507,4.093,0.75,6.111,0.75
					c11.388,0,21.774-7.734,24.638-19.273v0C338.624,42.121,330.314,28.328,316.731,24.958z M329.458,54.268L329.458,54.268
					c-2.576,10.387-13.116,16.743-23.512,14.165c-5.032-1.248-9.276-4.381-11.952-8.822s-3.461-9.658-2.213-14.69
					c1.248-5.032,4.381-9.277,8.821-11.952c3.062-1.846,6.494-2.792,9.982-2.792c1.567,0,3.146,0.192,4.707,0.578
					C325.679,33.333,332.035,43.88,329.458,54.268z"/>
			</g>
		</g>
	</g>
	<g>
		<g>
			<path class="st3" d="M320.72,43.509c-1.626-2.698-4.205-4.601-7.262-5.359c-0.94-0.234-1.901-0.352-2.856-0.352
				c-5.418,0-10.118,3.683-11.427,8.958c-0.758,3.057-0.28,6.225,1.344,8.923c1.626,2.698,4.205,4.601,7.262,5.359
				c0.942,0.233,1.903,0.352,2.856,0.352c5.418,0,10.118-3.684,11.427-8.958C322.822,49.376,322.344,46.207,320.72,43.509z"/>
		</g>
	</g>
	<g>
		<g>
			<g>
				<path class="st2" d="M370.51,217.524l-5.685-26.425c-3.589-16.748-16.812-29.398-33.685-32.225l-19.433-3.282l8.833-35.58
					l-0.688-2.727l-3.224-3.546l-10.734-10.671c-2.207-2.19-3.422-5.113-3.422-8.23c0-3.308,1.421-6.468,3.898-8.672
					c3.76-3.344,9.194-3.909,13.53-1.405l4.149-3.952c-4.027-7.828-12.298-12.501-22.126-12.501c-5.139,0-10.55,1.29-15.659,3.734
					c-5.16,2.499-9.91,5.754-14.502,8.901c-1.071,0.734-2.141,1.467-3.216,2.191l-3.432,2.318
					c-7.192,4.86-14.629,9.885-22.036,14.647c-1.404,0.891-2.802,1.789-4.199,2.687c-1.329,0.853-2.657,1.706-4.009,2.566
					c-2.832,1.831-5.25,4.309-6.995,7.169l-15.229,25.028c-4.86,7.986-2.511,18.202,5.352,23.261
					c3.841,2.461,8.408,3.283,12.863,2.315c4.459-0.97,8.271-3.619,10.73-7.456l14.196-22.078l-8.493,34.27
					c-1.184,4.758-0.943,9.71,0.747,14.443l20.703,51.035c1.692,4.154,2.712,8.569,3.031,13.12l2.609,37.671
					c0.719,10.263,9.34,18.304,19.628,18.304c5.146,0,10.108-2.164,13.618-5.936c3.506-3.77,5.302-8.874,4.929-14.002l-3.245-44.632
					c-0.313-4.172-1.145-8.246-2.471-12.117l-3.893-32.293l10.245,2.014c7.027,0.935,12.725,6.231,14.186,13.18l3.626,17.243
					c1.954,9.301,10.266,16.052,19.764,16.052c6.123,0,11.843-2.731,15.694-7.493C370.316,229.687,371.792,223.518,370.51,217.524z
					 M361.819,230.695c-2.712,3.353-6.739,5.276-11.049,5.276c-6.688,0-12.542-4.755-13.919-11.308l-3.626-17.242
					c-1.977-9.423-9.71-16.605-19.058-17.843l-14.096-2.777l-3.542,3.287l4.423,36.692l0.146,0.631
					c1.217,3.47,1.977,7.137,2.259,10.894l3.245,44.625c0.257,3.53-0.931,6.905-3.346,9.502c-2.417,2.599-5.699,4.03-9.243,4.03
					c-7.165,0-13.169-5.6-13.67-12.746l-2.609-37.67c-0.362-5.185-1.526-10.218-3.457-14.955l-20.654-50.909
					c-1.246-3.5-1.429-7.261-0.529-10.878l10.733-43.31l-4.511-3.232l-5.685,3.647l-0.9,0.898l-16.165,25.138
					c-1.598,2.495-4.074,4.217-6.972,4.847c-2.895,0.631-5.871,0.094-8.367-1.505c-5.11-3.289-6.638-9.935-3.476-15.13
					l15.227-25.024c1.279-2.096,3.056-3.915,5.119-5.25c1.341-0.853,2.676-1.71,4.012-2.568c1.39-0.892,2.779-1.784,4.189-2.68
					c7.478-4.807,14.944-9.852,22.163-14.731l3.426-2.314c1.085-0.731,2.17-1.474,3.255-2.217c4.412-3.023,8.971-6.149,13.715-8.447
					c4.297-2.057,8.817-3.143,13.069-3.143c4.262,0,8.051,1.045,11.094,2.986c-3.838,0.241-7.589,1.741-10.618,4.436
					c-3.751,3.334-5.901,8.122-5.901,13.134c0,4.721,1.843,9.15,5.185,12.468l10.627,10.558l2.047,2.255l-9.226,37.161l2.401,3.664
					l22.614,3.82c14.444,2.42,25.764,13.249,28.836,27.588l5.685,26.424C365.572,222.995,364.533,227.339,361.819,230.695z"/>
			</g>
		</g>
	</g>
	<g>
		<g>
			
				<rect x="245.532" y="102.657" transform="matrix(0.2378 -0.9713 0.9713 0.2378 99.9271 338.6328)" class="st2" width="40.411" height="5.973"/>
		</g>
	</g>
	<g>
		<g>
			<g>
				<path class="st2" d="M377.337,108.349l-22.925-1.911c-3.723-0.301-7.188-1.962-9.745-4.661l-17.718-18.959
					c-6.467-6.922-17.483-7.425-24.556-1.12c-3.655,3.259-5.744,7.749-5.878,12.645c-0.136,4.897,1.703,9.496,5.174,12.952
					l10.631,10.575l14.141,15.562c3.741,4.139,8.864,6.597,14.423,6.919l33.998,2.057c0.348,0.021,0.694,0.032,1.04,0.032
					c8.938,0,16.48-7.003,17.042-16.063c0.021-0.349,0.039-0.681,0.039-1.011C393.002,116.585,386.121,109.111,377.337,108.349z
					 M387.002,126.01c-0.379,6.124-5.679,10.794-11.759,10.436l-34.006-2.057c-3.931-0.228-7.701-2.036-10.349-4.967l-14.25-15.676
					l-10.734-10.684c-2.294-2.282-3.507-5.321-3.418-8.554c0.087-3.233,1.466-6.199,3.881-8.351
					c2.193-1.955,4.958-2.919,7.719-2.919c3.121,0,6.233,1.233,8.5,3.659l17.732,18.974c3.585,3.785,8.419,6.101,13.604,6.521
					l22.906,1.909c5.722,0.5,10.202,5.359,10.202,11.066C387.029,125.577,387.015,125.789,387.002,126.01z"/>
			</g>
		</g>
	</g>
	<g>
		<g>
			<polygon class="st2" points="310.916,158.777 305.149,157.224 296.458,189.514 296.732,191.786 302.662,191.074 302.528,189.949 
							"/>
		</g>
	</g>
	<g>
		<g>
			
				<rect x="59.681" y="345.398" transform="matrix(0.1475 -0.9891 0.9891 0.1475 -309.1815 374.5398)" class="st2" width="5.973" height="42.436"/>
		</g>
	</g>
</g>
</svg>
