<?xml version="1.0" encoding="utf-8"?>
<!-- Generator: Adobe Illustrator 22.0.0, SVG Export Plug-In . SVG Version: 6.00 Build 0)  -->
<svg version="1.1" xmlns="http://www.w3.org/2000/svg" xmlns:xlink="http://www.w3.org/1999/xlink" x="0px" y="0px"
	 viewBox="0 0 256 256" style="enable-background:new 0 0 256 256;" xml:space="preserve">
<style type="text/css">
	.st0{display:none;}
	.st1{display:inline;}
	.st2{fill:none;stroke:#6B1D1D;stroke-width:0.5;stroke-miterlimit:10;}
	.st3{fill:#3A312A;}
	.st4{fill:#87796F;}
	.st5{fill:#D5DE58;}
	.st6{fill:#695B51;}
	.st7{fill:#FCE8CB;}
	.st8{fill:#F16C7A;}
	.st9{fill:#8AC6DD;}
	.st10{fill:#DECAAD;}
	.st11{fill:#D6DF58;}
	.st12{fill-rule:evenodd;clip-rule:evenodd;fill:#FCE8CB;}
	.st13{fill:#F5978A;}
	.st14{fill:#D7E057;}
	.st15{fill-rule:evenodd;clip-rule:evenodd;fill:#87796F;}
	.st16{fill:#6CA8BF;}
	.st17{fill:#B9C239;}
	.st18{fill:#D34E5C;}
	.st19{fill:#FAE6CA;}
	.st20{fill:#F8E4C8;}
	.st21{fill:#8AC5DC;}
	.st22{fill:#EF6D7A;}
	.st23{fill:#EB6E7A;}
	.st24{fill:#89C4DB;}
	.st25{fill-rule:evenodd;clip-rule:evenodd;fill:#F16C7A;}
	.st26{fill:#F7E3C7;}
	.st27{fill:#F6E2C6;}
	.st28{fill:#ED6E7A;}
	.st29{fill:#8AC3DA;}
	.st30{fill:#D5DC57;}
	.st31{fill-rule:evenodd;clip-rule:evenodd;fill:#D7E057;}
	.st32{fill-rule:evenodd;clip-rule:evenodd;fill:#F8E4C8;}
	.st33{fill:#D4DB56;}
	.st34{fill:#F59689;}
	.st35{fill:#DDC9AC;}
	.st36{fill:#D24E5C;}
	.st37{fill:#6A5C52;}
	.st38{fill:#6CA6BE;}
	.st39{fill:#B8C136;}
	.st40{fill-rule:evenodd;clip-rule:evenodd;fill:#FAE6CA;}
</style>
<g id="Layer_2" class="st0">
	<g class="st1">
		<g>
			<line class="st2" x1="0" y1="4.829" x2="256" y2="4.829"/>
			<line class="st2" x1="0" y1="16.56" x2="256" y2="16.56"/>
			<line class="st2" x1="0" y1="28.29" x2="256" y2="28.29"/>
			<line class="st2" x1="0" y1="40.021" x2="256" y2="40.021"/>
			<line class="st2" x1="0" y1="51.751" x2="256" y2="51.751"/>
			<line class="st2" x1="0" y1="63.482" x2="256" y2="63.482"/>
			<line class="st2" x1="0" y1="75.213" x2="256" y2="75.213"/>
			<line class="st2" x1="0" y1="86.943" x2="256" y2="86.943"/>
			<line class="st2" x1="0" y1="98.674" x2="256" y2="98.674"/>
			<line class="st2" x1="0" y1="110.404" x2="256" y2="110.404"/>
			<line class="st2" x1="0" y1="122.135" x2="256" y2="122.135"/>
			<line class="st2" x1="0" y1="133.865" x2="256" y2="133.865"/>
			<line class="st2" x1="0" y1="145.596" x2="256" y2="145.596"/>
			<line class="st2" x1="0" y1="157.326" x2="256" y2="157.326"/>
			<line class="st2" x1="0" y1="169.057" x2="256" y2="169.057"/>
			<line class="st2" x1="0" y1="180.788" x2="256" y2="180.788"/>
			<line class="st2" x1="0" y1="192.518" x2="256" y2="192.518"/>
			<line class="st2" x1="0" y1="204.249" x2="256" y2="204.249"/>
			<line class="st2" x1="0" y1="215.979" x2="256" y2="215.979"/>
			<line class="st2" x1="0" y1="227.71" x2="256" y2="227.71"/>
			<line class="st2" x1="0" y1="239.44" x2="256" y2="239.44"/>
			<line class="st2" x1="0" y1="251.171" x2="256" y2="251.171"/>
		</g>
		<g>
			<line class="st2" x1="251.171" y1="0" x2="251.171" y2="256"/>
			<line class="st2" x1="239.44" y1="0" x2="239.44" y2="256"/>
			<line class="st2" x1="227.71" y1="0" x2="227.71" y2="256"/>
			<line class="st2" x1="215.979" y1="0" x2="215.979" y2="256"/>
			<line class="st2" x1="204.249" y1="0" x2="204.249" y2="256"/>
			<line class="st2" x1="192.518" y1="0" x2="192.518" y2="256"/>
			<line class="st2" x1="180.787" y1="0" x2="180.787" y2="256"/>
			<line class="st2" x1="169.057" y1="0" x2="169.057" y2="256"/>
			<line class="st2" x1="157.326" y1="0" x2="157.326" y2="256"/>
			<line class="st2" x1="145.596" y1="0" x2="145.596" y2="256"/>
			<line class="st2" x1="133.865" y1="0" x2="133.865" y2="256"/>
			<line class="st2" x1="122.135" y1="0" x2="122.135" y2="256"/>
			<line class="st2" x1="110.404" y1="0" x2="110.404" y2="256"/>
			<line class="st2" x1="98.674" y1="0" x2="98.674" y2="256"/>
			<line class="st2" x1="86.943" y1="0" x2="86.943" y2="256"/>
			<line class="st2" x1="75.212" y1="0" x2="75.212" y2="256"/>
			<line class="st2" x1="63.482" y1="0" x2="63.482" y2="256"/>
			<line class="st2" x1="51.751" y1="0" x2="51.751" y2="256"/>
			<line class="st2" x1="40.021" y1="0" x2="40.021" y2="256"/>
			<line class="st2" x1="28.29" y1="0" x2="28.29" y2="256"/>
			<line class="st2" x1="16.56" y1="0" x2="16.56" y2="256"/>
			<line class="st2" x1="4.829" y1="0" x2="4.829" y2="256"/>
		</g>
	</g>
</g>
<g id="Layer_1">
	<g>
		<path class="st14" d="M153.727,16.56H28.434c-6.479,0-11.73,5.252-11.73,11.73s5.252,11.731,11.73,11.731h199.419
			c6.479,0,11.73-5.252,11.73-11.731s-5.252-11.73-11.73-11.73h-59.961H153.727z"/>
		<path class="st3" d="M227.853,41.521H28.434c-7.295,0-13.23-5.936-13.23-13.231c0-7.295,5.935-13.23,13.23-13.23h125.294
			c0.829,0,1.5,0.672,1.5,1.5c0,0.828-0.671,1.5-1.5,1.5H28.434c-5.641,0-10.23,4.59-10.23,10.23c0,5.642,4.589,10.231,10.23,10.231
			h199.419c5.641,0,10.23-4.59,10.23-10.231c0-5.641-4.589-10.23-10.23-10.23h-59.96c-0.829,0-1.5-0.672-1.5-1.5
			c0-0.828,0.671-1.5,1.5-1.5h59.96c7.295,0,13.23,5.936,13.23,13.23C241.083,35.586,235.148,41.521,227.853,41.521z"/>
		<path class="st4" d="M122.273,180.79h11.74v52.78c0,3.24-2.63,5.87-5.87,5.87c-3.24,0-5.87-2.63-5.87-5.87V180.79z"/>
		<path class="st3" d="M128.144,240.94c-4.064,0-7.37-3.307-7.37-7.37v-52.78c0-0.828,0.671-1.5,1.5-1.5h11.74
			c0.829,0,1.5,0.672,1.5,1.5v52.78C135.513,237.634,132.207,240.94,128.144,240.94z M123.773,182.29v51.28
			c0,2.41,1.961,4.37,4.37,4.37c2.409,0,4.37-1.96,4.37-4.37v-51.28H123.773z"/>
		<path class="st4" d="M84.157,212.894l-8.633,18.167c-1.39,2.92-0.15,6.42,2.78,7.81c2.92,1.39,6.42,0.15,7.81-2.78l26.28-55.3
			h-12.98l-8.547,17.985L84.157,212.894z"/>
		<path class="st3" d="M80.814,240.942c-1.079,0-2.153-0.24-3.156-0.718c-1.776-0.843-3.118-2.328-3.777-4.182
			c-0.66-1.854-0.557-3.852,0.288-5.627l8.633-18.166c0.355-0.75,1.25-1.067,1.999-0.711c0.748,0.355,1.066,1.25,0.711,1.998
			l-8.633,18.167c-0.501,1.053-0.562,2.236-0.171,3.334c0.391,1.098,1.186,1.977,2.239,2.477c1.052,0.501,2.236,0.562,3.334,0.172
			c1.098-0.391,1.978-1.185,2.478-2.239l25.262-53.157h-9.659l-8.14,17.129c-0.356,0.749-1.251,1.064-1.999,0.711
			c-0.748-0.355-1.066-1.25-0.711-1.998l8.547-17.985c0.248-0.523,0.776-0.857,1.355-0.857h12.98c0.515,0,0.993,0.264,1.268,0.698
			c0.275,0.436,0.308,0.98,0.087,1.445l-26.28,55.3c-0.843,1.777-2.329,3.12-4.183,3.779
			C82.479,240.8,81.645,240.942,80.814,240.942z"/>
		<path class="st4" d="M178.673,238.87c-2.92,1.39-6.42,0.15-7.81-2.78l-26.28-55.3h12.98l23.89,50.27
			C182.843,233.98,181.603,237.48,178.673,238.87z"/>
		<path class="st3" d="M176.162,240.942c-0.831,0-1.665-0.143-2.472-0.43c-1.854-0.659-3.338-2.002-4.182-3.78l-26.279-55.299
			c-0.221-0.465-0.188-1.01,0.087-1.445c0.275-0.435,0.753-0.698,1.268-0.698h12.98c0.579,0,1.106,0.333,1.355,0.857l23.89,50.271
			c0.845,1.774,0.947,3.773,0.287,5.627c-0.659,1.854-2.001,3.338-3.78,4.182C178.313,240.702,177.24,240.942,176.162,240.942z
			 M146.957,182.29l25.261,53.156c0.5,1.054,1.379,1.85,2.477,2.24c1.098,0.39,2.281,0.33,3.333-0.171
			c0.001,0,0.001-0.001,0.002-0.001c1.053-0.499,1.848-1.379,2.239-2.477c0.391-1.098,0.33-2.281-0.17-3.333l-23.483-49.415H146.957
			z"/>
		<polygon class="st7" points="35.722,100.329 35.722,157.327 220.565,157.327 220.565,40.021 35.722,40.021 35.722,85.671 		"/>
		<path class="st3" d="M220.565,158.826H35.722c-0.829,0-1.5-0.672-1.5-1.5V40.021c0-0.828,0.671-1.5,1.5-1.5h184.844
			c0.829,0,1.5,0.672,1.5,1.5v117.305C222.065,158.154,221.394,158.826,220.565,158.826z M37.222,155.826h181.844V41.521H37.222
			V155.826z"/>
		<path class="st14" d="M195.951,180.788h31.902c6.479,0,11.73-5.252,11.73-11.73c0-6.479-5.252-11.73-11.73-11.73H29.125
			c-6.479,0-11.73,5.251-11.73,11.73c0,6.479,5.252,11.73,11.73,11.73h151.711H195.951z"/>
		<path class="st3" d="M227.853,182.288h-31.902c-0.829,0-1.5-0.672-1.5-1.5s0.671-1.5,1.5-1.5h31.902
			c5.641,0,10.23-4.59,10.23-10.232c0-5.641-4.589-10.229-10.23-10.229H29.124c-5.641,0-10.23,4.589-10.23,10.229
			c0,5.642,4.589,10.232,10.23,10.232h151.711c0.829,0,1.5,0.672,1.5,1.5s-0.671,1.5-1.5,1.5H29.124
			c-7.295,0-13.23-5.936-13.23-13.232c0-7.295,5.935-13.229,13.23-13.229h198.729c7.295,0,13.23,5.935,13.23,13.229
			C241.083,176.352,235.148,182.288,227.853,182.288z"/>
		<path class="st4" d="M43.659,227.11v5.777c0,3.442-2.791,6.233-6.241,6.233h-1.277c-3.442,0-6.233-2.791-6.233-6.233v-5.777
			H43.659z"/>
		<path class="st3" d="M37.418,240.62h-1.277c-4.264,0-7.733-3.469-7.733-7.733v-5.777c0-0.828,0.671-1.5,1.5-1.5h13.752
			c0.829,0,1.5,0.672,1.5,1.5v5.777C45.159,237.151,41.686,240.62,37.418,240.62z M31.408,228.609v4.277
			c0,2.61,2.123,4.733,4.733,4.733h1.277c2.614,0,4.741-2.123,4.741-4.733v-4.277H31.408z"/>
		<path class="st4" d="M57.402,227.11v5.777c0,3.442-2.791,6.233-6.233,6.233h-1.277c-3.442,0-6.233-2.791-6.233-6.233v-5.777
			H57.402z"/>
		<path class="st3" d="M51.169,240.62h-1.277c-4.264,0-7.733-3.469-7.733-7.733v-5.777c0-0.828,0.671-1.5,1.5-1.5h13.743
			c0.829,0,1.5,0.672,1.5,1.5v5.777C58.902,237.151,55.434,240.62,51.169,240.62z M45.159,228.609v4.277
			c0,2.61,2.123,4.733,4.733,4.733h1.277c2.61,0,4.733-2.123,4.733-4.733v-4.277H45.159z"/>
		<rect x="26.397" y="173.361" class="st9" width="34.846" height="53.752"/>
		<path class="st3" d="M61.242,228.613H26.396c-0.829,0-1.5-0.672-1.5-1.5V173.36c0-0.828,0.671-1.5,1.5-1.5h34.846
			c0.829,0,1.5,0.672,1.5,1.5v53.753C62.742,227.941,62.071,228.613,61.242,228.613z M27.896,225.613h31.846V174.86H27.896V225.613z
			"/>
		<path class="st3" d="M43.654,228.613c-0.829,0-1.5-0.672-1.5-1.5V173.36c0-0.828,0.671-1.5,1.5-1.5c0.829,0,1.5,0.672,1.5,1.5
			v53.753C45.154,227.941,44.482,228.613,43.654,228.613z"/>
		<path class="st7" d="M71.21,137.917v35.448H16.417v-35.448c0-6.825,5.542-12.367,12.368-12.367h8.166v-5.143
			c2.301,1.654,4.658,2.633,6.892,2.633c2.262,0,4.591-0.912,6.844-2.472v4.981h8.175C65.678,125.55,71.21,131.092,71.21,137.917z"
			/>
		<path class="st3" d="M71.21,174.866H16.417c-0.829,0-1.5-0.672-1.5-1.5v-35.448c0-7.646,6.221-13.868,13.867-13.868h6.666v-3.643
			c0-0.562,0.315-1.078,0.816-1.335c0.5-0.256,1.102-0.213,1.56,0.117c2.138,1.538,4.218,2.351,6.016,2.351
			c1.862,0,3.877-0.742,5.991-2.205c0.458-0.318,1.056-0.354,1.55-0.096c0.494,0.26,0.804,0.771,0.804,1.329v3.481h6.675
			c7.636,0,13.848,6.222,13.848,13.868v35.448C72.71,174.194,72.039,174.866,71.21,174.866z M17.917,171.866H69.71v-33.948
			c0-5.993-4.867-10.868-10.848-10.868h-8.175c-0.829,0-1.5-0.672-1.5-1.5v-2.354c-3.628,1.782-7.022,1.822-10.736-0.101v2.454
			c0,0.828-0.671,1.5-1.5,1.5h-8.166c-5.992,0-10.867,4.875-10.867,10.868V171.866z"/>
		
			<rect x="43.827" y="133.511" transform="matrix(0.705 -0.7093 0.7093 0.705 -81.7696 70.4904)" class="st4" width="0.026" height="0.032"/>
		<path class="st3" d="M43.844,135.046c-0.292,0-0.586-0.085-0.843-0.26c-0.679-0.461-0.885-1.398-0.433-2.083
			c0.247-0.374,0.656-0.63,1.101-0.678c0.441-0.049,0.897,0.094,1.217,0.408c0.286,0.28,0.46,0.676,0.462,1.076
			c0.002,0.4-0.144,0.797-0.427,1.08l-0.017,0.017C44.615,134.896,44.231,135.046,43.844,135.046z"/>
		<path class="st4" d="M71.215,137.92v35.445H16.416V137.92c0-6.824,5.542-12.366,12.366-12.366h2.203l-0.025,0.017l8.493,11.272
			l4.391-3.297l4.382,3.297l8.493-11.272l-0.025-0.017h2.162C65.681,125.554,71.215,131.096,71.215,137.92z"/>
		<path class="st3" d="M71.215,174.864H16.416c-0.829,0-1.5-0.672-1.5-1.5V137.92c0-7.646,6.22-13.866,13.866-13.866h2.203
			c0.583,0,1.106,0.337,1.353,0.852l7.413,9.839l3.192-2.397c0.534-0.401,1.268-0.401,1.803,0.001l3.185,2.395l7.46-9.901
			c0.256-0.476,0.749-0.788,1.305-0.788h2.162c7.641,0,13.857,6.221,13.857,13.866v35.444
			C72.715,174.192,72.043,174.864,71.215,174.864z M17.916,171.864h51.798V137.92c0-5.991-4.871-10.866-10.857-10.866H57.48
			l-8.055,10.691c-0.499,0.662-1.438,0.796-2.1,0.296l-3.481-2.618l-3.488,2.619c-0.662,0.498-1.601,0.364-2.099-0.297
			l-8.055-10.691h-1.418c-5.991,0-10.866,4.875-10.866,10.866V171.864z"/>
		<path class="st3" d="M26.396,174.861c-0.829,0-1.5-0.672-1.5-1.5v-33.09c0-0.828,0.671-1.5,1.5-1.5s1.5,0.672,1.5,1.5v33.09
			C27.896,174.189,27.225,174.861,26.396,174.861z"/>
		<path class="st3" d="M61.242,174.861c-0.829,0-1.5-0.672-1.5-1.5v-33.09c0-0.828,0.671-1.5,1.5-1.5c0.829,0,1.5,0.672,1.5,1.5
			v33.09C62.742,174.189,62.071,174.861,61.242,174.861z"/>
		<path class="st7" d="M66.23,183.336L66.23,183.336c-2.755,0-4.988-2.233-4.988-4.988v-4.988h9.976v4.988
			C71.218,181.103,68.985,183.336,66.23,183.336z"/>
		<path class="st3" d="M66.23,184.836c-3.577,0-6.488-2.91-6.488-6.487v-4.988c0-0.828,0.671-1.5,1.5-1.5h9.976
			c0.829,0,1.5,0.672,1.5,1.5v4.988C72.718,181.926,69.808,184.836,66.23,184.836z M62.742,174.86v3.488
			c0,1.923,1.564,3.487,3.488,3.487c1.923,0,3.488-1.564,3.488-3.487v-3.488H62.742z"/>
		<polygon class="st9" points="49.486,162.768 43.799,169.241 38.104,162.768 41.256,142.333 46.342,142.333 		"/>
		<path class="st3" d="M43.799,170.741c-0.431,0-0.841-0.186-1.126-0.509l-5.695-6.474c-0.294-0.334-0.424-0.78-0.356-1.22
			l3.152-20.435c0.113-0.732,0.742-1.272,1.482-1.272h5.085c0.74,0,1.37,0.54,1.482,1.272l3.144,20.435
			c0.067,0.439-0.062,0.885-0.355,1.219l-5.687,6.474C44.642,170.556,44.231,170.741,43.799,170.741L43.799,170.741z
			 M39.693,162.304l4.105,4.666l4.099-4.666l-2.842-18.471h-2.513L39.693,162.304z"/>
		<polygon class="st9" points="48.095,133.526 46.335,142.333 41.26,142.333 39.541,133.526 		"/>
		<path class="st3" d="M46.335,143.833H41.26c-0.718,0-1.335-0.509-1.472-1.213l-1.719-8.808c-0.086-0.439,0.029-0.895,0.314-1.241
			c0.285-0.346,0.709-0.546,1.158-0.546h8.553c0.449,0,0.875,0.201,1.16,0.549c0.285,0.348,0.399,0.805,0.31,1.245l-1.76,8.808
			C47.666,143.328,47.05,143.833,46.335,143.833z M42.496,140.833h2.609l1.16-5.808h-4.903L42.496,140.833z"/>
		<path class="st12" d="M27.423,95.122c0,2.695-2.185,4.88-4.88,4.88c-2.695,0-4.88-2.185-4.88-4.88c0-2.695,2.185-4.88,4.88-4.88
			C25.238,90.243,27.423,92.427,27.423,95.122z"/>
		<path class="st3" d="M22.542,101.502c-3.518,0-6.379-2.862-6.379-6.38c0-3.518,2.862-6.38,6.379-6.38
			c3.518,0,6.38,2.862,6.38,6.38C28.922,98.64,26.06,101.502,22.542,101.502z M22.542,91.742c-1.863,0-3.379,1.517-3.379,3.38
			c0,1.863,1.516,3.38,3.379,3.38c1.864,0,3.38-1.517,3.38-3.38C25.922,93.259,24.406,91.742,22.542,91.742z"/>
		<path class="st12" d="M70.015,95.122c0,2.695-2.185,4.88-4.88,4.88s-4.88-2.185-4.88-4.88c0-2.695,2.185-4.88,4.88-4.88
			S70.015,92.427,70.015,95.122z"/>
		<path class="st3" d="M65.135,101.502c-3.518,0-6.38-2.862-6.38-6.38c0-3.518,2.862-6.38,6.38-6.38c3.518,0,6.38,2.862,6.38,6.38
			C71.515,98.64,68.653,101.502,65.135,101.502z M65.135,91.742c-1.864,0-3.38,1.517-3.38,3.38c0,1.863,1.516,3.38,3.38,3.38
			c1.864,0,3.38-1.517,3.38-3.38C68.515,93.259,66.999,91.742,65.135,91.742z"/>
		<path class="st7" d="M65.472,92.754c0,11.948-11.506,30.286-21.633,30.286c-9.666,0-21.633-18.338-21.633-30.286
			c0-11.948,9.685-21.633,21.633-21.633S65.472,80.806,65.472,92.754z"/>
		<path class="st3" d="M43.839,124.54c-10.725,0-23.133-19.235-23.133-31.786c0-12.756,10.377-23.133,23.133-23.133
			c12.755,0,23.133,10.377,23.133,23.133C66.972,105.594,54.786,124.54,43.839,124.54z M43.839,72.621
			c-11.101,0-20.133,9.031-20.133,20.133c0,11.837,11.854,28.786,20.133,28.786c9.14,0,20.133-17.681,20.133-28.786
			C63.972,81.652,54.94,72.621,43.839,72.621z"/>
		<path class="st4" d="M44.089,66.346c-12.366,0-22.391,9.584-22.391,21.407c0,1.251,0.226,2.184,0.647,3.348
			c0.198,0.549,3.405-1.205,3.678-1.397c1.365-0.961,2.481-2.264,3.315-3.704c0.345-0.599,0.632-1.208,0.864-1.818
			c0.738-1.945,2.743-7.356,4.78-6.931c2.73,0.569,5.825,0.891,9.108,0.891c3.283,0,6.378-0.322,9.108-0.891
			c2.036-0.424,4.042,4.987,4.779,6.931c0.231,0.61,0.519,1.219,0.864,1.818c1.377,2.383,3.704,4.651,6.534,5.063
			c0.007-0.137,0.18-0.183,0.309-0.23c0.927-0.337,0.796-2.339,0.796-3.081C66.479,75.93,56.455,66.346,44.089,66.346z"/>
		<path class="st3" d="M22.513,92.694c-0.186,0-0.36-0.022-0.515-0.071c-0.501-0.157-0.889-0.526-1.064-1.011
			c-0.442-1.225-0.736-2.35-0.736-3.858c0-12.631,10.717-22.907,23.891-22.907c13.173,0,23.891,10.275,23.891,22.906l0.002,0.229
			c0.017,1.122,0.05,3.41-1.583,4.179c-0.024,0.022-0.048,0.044-0.074,0.064c-0.327,0.268-0.75,0.386-1.167,0.324
			c-2.917-0.425-5.764-2.592-7.617-5.797c-0.379-0.658-0.704-1.343-0.967-2.036l-0.045-0.119c-1.81-4.778-2.801-5.686-3.13-5.854
			c-2.905,0.598-6.037,0.9-9.31,0.9c-3.273,0-6.405-0.303-9.311-0.9c-0.329,0.169-1.32,1.076-3.13,5.854l-0.045,0.119
			c-0.262,0.691-0.587,1.376-0.966,2.034c-0.986,1.703-2.283,3.148-3.751,4.182C26.858,90.951,24.172,92.694,22.513,92.694z
			 M66.872,91.148L66.872,91.148L66.872,91.148z M53.456,75.724c2.551,0,4.332,3.728,5.879,7.811l0.044,0.117
			c0.206,0.544,0.463,1.083,0.761,1.601c1.241,2.146,2.988,3.663,4.776,4.182c0.054-0.284,0.076-0.756,0.066-1.408l-0.003-0.272
			c0-10.977-9.372-19.906-20.891-19.906c-11.52,0-20.891,8.931-20.891,19.907c0,0.61,0.065,1.124,0.185,1.632
			c0.682-0.305,1.508-0.737,1.801-0.925c1.091-0.768,2.087-1.885,2.855-3.212c0.297-0.516,0.553-1.054,0.759-1.597l0.045-0.118
			c1.658-4.379,3.597-8.344,6.444-7.751c2.734,0.57,5.695,0.859,8.802,0.859c3.063,0,6.107-0.297,8.802-0.859
			C53.083,75.743,53.271,75.724,53.456,75.724z"/>
		<path class="st4" d="M23.482,68.445c1.709,2.694,3.695,5.215,6.025,7.393c2.827,2.643,6.032,4.813,9.402,5.771
			c8.545,2.43,23.669-0.601,23.669-12.9c0-7.865-6.592-17.37-18.895-10.133c-15.249,8.971-24.101-8.274-24.101-0.409
			c0,0.755,0.139,1.672,0.364,2.628c0.539,2.289,1.507,4.455,2.767,6.44L23.482,68.445z"/>
		<path class="st3" d="M44.873,83.875c-2.309,0-4.506-0.291-6.374-0.823c-3.311-0.941-6.681-2.999-10.016-6.118
			c-2.269-2.121-4.377-4.707-6.267-7.685l-0.768-1.209c-1.41-2.223-2.406-4.545-2.96-6.901c-0.268-1.137-0.404-2.137-0.404-2.972
			c0-1.191,0.154-2.646,1.353-3.324c1.404-0.794,2.894,0.098,4.954,1.334c4.026,2.413,10.108,6.062,18.533,1.106
			c6.85-4.029,11.647-2.952,14.465-1.342c4.064,2.325,6.69,7.336,6.69,12.768c0,4.532-1.895,8.358-5.481,11.067
			C54.785,82.656,49.595,83.875,44.873,83.875z M21.095,57.752c-0.007,0.115-0.011,0.253-0.011,0.415
			c0,0.595,0.112,1.385,0.324,2.283c0.478,2.031,1.344,4.043,2.573,5.981l0.767,1.208c0,0.001,0.001,0.001,0.001,0.001
			c1.753,2.764,3.699,5.153,5.783,7.102c2.984,2.79,5.941,4.615,8.788,5.425c4.855,1.38,12.627,0.873,17.47-2.785
			c2.846-2.149,4.289-5.067,4.289-8.673c0-3.584-1.602-8.116-5.18-10.163c-3.053-1.748-7.015-1.288-11.454,1.323
			c-9.96,5.86-17.53,1.32-21.598-1.119C22.264,58.399,21.583,57.991,21.095,57.752z"/>
		<path class="st3" d="M38.295,92.509c0,1.166-0.945,2.111-2.111,2.111c-1.166,0-2.111-0.945-2.111-2.111
			c0-1.166,0.945-2.111,2.111-2.111C37.35,90.398,38.295,91.343,38.295,92.509z"/>
		<path class="st3" d="M53.57,92.509c0,1.166-0.945,2.111-2.111,2.111c-1.166,0-2.111-0.945-2.111-2.111
			c0-1.166,0.945-2.111,2.111-2.111C52.625,90.398,53.57,91.343,53.57,92.509z"/>
		<path class="st13" d="M35.601,98.787c0,1.502-1.628,2.719-3.637,2.719c-2.009,0-3.637-1.217-3.637-2.719
			c0-1.502,1.628-2.719,3.637-2.719C33.973,96.068,35.601,97.285,35.601,98.787z"/>
		<path class="st13" d="M59.316,98.787c0,1.502-1.628,2.719-3.637,2.719c-2.009,0-3.637-1.217-3.637-2.719
			c0-1.502,1.628-2.719,3.637-2.719C57.688,96.068,59.316,97.285,59.316,98.787z"/>
		<path class="st3" d="M43.795,111.404c-3.371,0-5.907-1.582-7.332-4.576c-0.356-0.748-0.038-1.643,0.709-1.999
			c0.749-0.354,1.643-0.038,2,0.71c0.931,1.955,2.399,2.865,4.623,2.865c2.6,0,4.159-1.643,4.573-2.747
			c0.29-0.776,1.154-1.172,1.931-0.878c0.776,0.29,1.169,1.154,0.879,1.931C50.331,108.971,47.659,111.404,43.795,111.404z"/>
		
			<rect x="34.652" y="122.493" transform="matrix(0.7986 -0.6019 0.6019 0.7986 -70.4368 48.6058)" class="st14" width="5.513" height="14.113"/>
		<path class="st3" d="M39.455,138.344c-0.455,0-0.904-0.206-1.199-0.597l-8.495-11.271c-0.24-0.318-0.343-0.718-0.288-1.112
			c0.055-0.394,0.265-0.749,0.582-0.989l4.403-3.318c0.662-0.497,1.601-0.366,2.1,0.296l8.494,11.271
			c0.498,0.661,0.367,1.602-0.295,2.101l-4.403,3.318C40.086,138.245,39.769,138.344,39.455,138.344z M33.06,125.868l6.689,8.875
			l2.007-1.513l-6.688-8.875L33.06,125.868z"/>
		
			<rect x="47.513" y="122.493" transform="matrix(-0.7986 -0.6019 0.6019 -0.7986 12.4445 263.2632)" class="st14" width="5.513" height="14.113"/>
		<path class="st3" d="M48.224,138.344c-0.324,0-0.641-0.104-0.903-0.302l-4.403-3.318c-0.662-0.499-0.793-1.439-0.295-2.101
			l8.494-11.271c0.239-0.318,0.595-0.527,0.989-0.583c0.391-0.056,0.794,0.047,1.111,0.287l4.403,3.318
			c0.662,0.499,0.793,1.439,0.295,2.101l-8.494,11.27c-0.239,0.318-0.595,0.527-0.989,0.583
			C48.363,138.339,48.293,138.344,48.224,138.344z M45.922,133.23l2.007,1.513l6.689-8.875l-2.007-1.513L45.922,133.23z"/>
		
			<rect x="43.827" y="133.511" transform="matrix(0.705 -0.7093 0.7093 0.705 -81.7696 70.4904)" class="st14" width="0.026" height="0.032"/>
		<path class="st3" d="M43.844,135.046c-0.292,0-0.586-0.085-0.843-0.26c-0.679-0.461-0.885-1.398-0.433-2.083
			c0.247-0.374,0.656-0.63,1.101-0.678c0.441-0.049,0.897,0.094,1.217,0.408c0.286,0.28,0.46,0.676,0.462,1.076
			c0.002,0.4-0.144,0.797-0.427,1.08l-0.017,0.017C44.615,134.896,44.231,135.046,43.844,135.046z"/>
		
			<rect x="43.827" y="133.511" transform="matrix(0.7057 -0.7085 0.7085 0.7057 -81.7058 70.3635)" class="st14" width="0.026" height="0.032"/>
		<path class="st3" d="M43.832,135.039c-0.29,0-0.58-0.082-0.831-0.253c-0.679-0.461-0.885-1.398-0.433-2.083
			c0.247-0.374,0.656-0.63,1.101-0.678c0.441-0.049,0.897,0.094,1.217,0.408l0.025,0.024c0.286,0.28,0.448,0.663,0.45,1.064
			c0.002,0.4-0.156,0.785-0.439,1.068C44.627,134.885,44.23,135.039,43.832,135.039z"/>
		<path class="st7" d="M21.409,183.336L21.409,183.336c-2.755,0-4.988-2.233-4.988-4.988v-4.988h9.976v4.988
			C26.397,181.103,24.163,183.336,21.409,183.336z"/>
		<path class="st3" d="M21.409,184.836c-3.578,0-6.488-2.91-6.488-6.487v-4.988c0-0.828,0.671-1.5,1.5-1.5h9.976
			c0.829,0,1.5,0.672,1.5,1.5v4.988C27.896,181.926,24.986,184.836,21.409,184.836z M17.92,174.86v3.488
			c0,1.923,1.565,3.487,3.488,3.487c1.923,0,3.488-1.564,3.488-3.487v-3.488H17.92z"/>
		<path class="st17" d="M238.083,28.29c0,5.64-4.59,10.23-10.23,10.23h-15c5.64,0,10.23-4.59,10.23-10.23
			c0-5.64-4.59-10.23-10.23-10.23h15C233.493,18.06,238.083,22.65,238.083,28.29z"/>
		<path class="st10" d="M204.063,41.52v114.31h15V41.52H204.063z"/>
		<path class="st17" d="M238.083,169.06c0,5.64-4.59,10.23-10.23,10.23h-15c5.64,0,10.23-4.59,10.23-10.23
			c0-5.64-4.59-10.23-10.23-10.23h15C233.493,158.83,238.083,163.42,238.083,169.06z"/>
		<rect x="71.2" y="129.759" class="st8" width="19.638" height="13.613"/>
		<path class="st3" d="M90.838,144.871H71.2c-0.829,0-1.5-0.672-1.5-1.5v-13.612c0-0.828,0.671-1.5,1.5-1.5h19.638
			c0.829,0,1.5,0.672,1.5,1.5v13.612C92.338,144.199,91.666,144.871,90.838,144.871z M72.7,141.871h16.638v-10.612H72.7V141.871z"/>
		<rect x="102.654" y="116.834" class="st14" width="19.638" height="26.537"/>
		<path class="st3" d="M122.292,144.871h-19.638c-0.829,0-1.5-0.672-1.5-1.5v-26.537c0-0.828,0.671-1.5,1.5-1.5h19.638
			c0.829,0,1.5,0.672,1.5,1.5v26.537C123.792,144.199,123.121,144.871,122.292,144.871z M104.154,141.871h16.638v-23.537h-16.638
			V141.871z"/>
		<rect x="134.108" y="103.91" class="st8" width="19.638" height="39.462"/>
		<path class="st3" d="M153.746,144.871h-19.638c-0.829,0-1.5-0.672-1.5-1.5V103.91c0-0.828,0.671-1.5,1.5-1.5h19.638
			c0.829,0,1.5,0.672,1.5,1.5v39.461C155.246,144.199,154.575,144.871,153.746,144.871z M135.608,141.871h16.638V105.41h-16.638
			V141.871z"/>
		<rect x="165.562" y="90.985" class="st14" width="19.638" height="52.386"/>
		<path class="st3" d="M185.2,144.871h-19.638c-0.829,0-1.5-0.672-1.5-1.5V90.985c0-0.828,0.671-1.5,1.5-1.5H185.2
			c0.829,0,1.5,0.672,1.5,1.5v52.386C186.7,144.199,186.029,144.871,185.2,144.871z M167.062,141.871H183.7V92.485h-16.638V141.871z
			"/>
		<path class="st9" d="M182.788,60.461l-18.46-5.996c-1.75-0.569-3.628,0.389-4.197,2.139c-0.568,1.749,0.39,3.628,2.139,4.196
			l10.778,3.501l-99.975,51.194c-1.637,0.839-2.285,2.845-1.446,4.482c0.589,1.151,1.756,1.813,2.967,1.813
			c0.511,0,1.03-0.118,1.516-0.367l100.009-51.212l-3.524,10.848c-0.568,1.749,0.39,3.628,2.139,4.196
			c0.342,0.111,0.689,0.164,1.03,0.164c1.404,0,2.71-0.895,3.167-2.303l5.996-18.46C185.495,62.908,184.537,61.029,182.788,60.461z"
			/>
		<path class="st3" d="M74.595,123.291c-1.823,0-3.472-1.008-4.302-2.63c-1.214-2.37-0.273-5.286,2.097-6.501l96.761-49.549
			l-7.343-2.385c-2.533-0.823-3.924-3.554-3.102-6.086c0.399-1.227,1.251-2.226,2.4-2.812c1.15-0.585,2.46-0.688,3.687-0.29
			l18.459,5.996l0,0c2.533,0.823,3.925,3.554,3.103,6.086l-5.996,18.461c-0.649,1.997-2.496,3.339-4.594,3.339
			c-0.507,0-1.009-0.08-1.494-0.238c-2.532-0.822-3.923-3.552-3.101-6.085l2.402-7.395l-96.777,49.557
			C76.115,123.107,75.354,123.291,74.595,123.291z M163.297,55.801c-0.285,0-0.567,0.067-0.829,0.2
			c-0.436,0.223-0.759,0.601-0.91,1.066c-0.312,0.959,0.216,1.994,1.175,2.306l10.778,3.501c0.577,0.188,0.984,0.703,1.032,1.308
			c0.048,0.604-0.272,1.178-0.811,1.454L73.757,116.83c-0.898,0.46-1.254,1.565-0.794,2.464c0.447,0.873,1.577,1.247,2.463,0.795
			l100.009-51.212c0.54-0.279,1.194-0.2,1.657,0.193c0.462,0.394,0.641,1.027,0.454,1.605l-3.523,10.848
			c-0.312,0.959,0.215,1.994,1.175,2.306c0.958,0.315,2.002-0.235,2.307-1.176l5.996-18.46c0.312-0.959-0.216-1.994-1.176-2.306
			l-18.46-5.996C163.679,55.831,163.487,55.801,163.297,55.801z"/>
	</g>
</g>
</svg>
