<svg xmlns="http://www.w3.org/2000/svg" viewBox="0 0 48 48"><defs><style>.cls-1{fill:#b5efff;}.cls-2{fill:#f2f6fc;}.cls-3{fill:#ffde91;}.cls-4{fill:#ff8257;}.cls-5{fill:#414952;}.cls-6{fill:#f2cac1;}.cls-7{fill:#ffcdbe;}.cls-8{fill:#dce1eb;}.cls-9{fill:#ffbeaa;}.cls-10{fill:#80dbff;}.cls-11{fill:#190402;}</style></defs><title>09-online support</title><g id="_09-online_support" data-name="09-online support"><path class="cls-1" d="M41,3a2,2,0,0,0-2-2H3A2,2,0,0,0,1,3V9H41Z"/><path class="cls-2" d="M1,9V33a2,2,0,0,0,2,2H39a2,2,0,0,0,2-2V9Z"/><path class="cls-3" d="M23,15H7a2,2,0,0,0-2,2V33a2,2,0,0,0,2,2h8l4,4V35h4a2,2,0,0,0,2-2V17A2,2,0,0,0,23,15Z"/><path class="cls-4" d="M43,47H37V37a2.015,2.015,0,0,0,2-2h4a4,4,0,0,1,4,4v8Z"/><path class="cls-5" d="M44,22v1l-2,2c-7,0-7-3-7-3a2.938,2.938,0,0,1-3,3l-2-2V22a7,7,0,0,1,14,0Z"/><path class="cls-6" d="M42,25a2,2,0,0,1,0,4Z"/><path class="cls-7" d="M39,33.59a5,5,0,0,1-5.54-1.05A5.022,5.022,0,0,1,32,29V25a2.938,2.938,0,0,0,3-3s0,3,7,3v4A5.029,5.029,0,0,1,39,33.59Z"/><path class="cls-7" d="M39,33.59V35a2.015,2.015,0,0,1-2,2,2.006,2.006,0,0,1-2-2V33.59a5.083,5.083,0,0,0,4,0Z"/><path class="cls-4" d="M31,47H27V39a4,4,0,0,1,4-4h4a2.006,2.006,0,0,0,2,2V47Z"/><path class="cls-6" d="M32,25v4a2,2,0,0,1,0-4Z"/><rect class="cls-8" x="1" y="9" width="40" height="3"/><path class="cls-9" d="M35,22a2.938,2.938,0,0,1-3,3v4a2.938,2.938,0,0,0,3-3s0,3,7,3V25C35,25,35,22,35,22Z"/><path class="cls-10" d="M41,3a2,2,0,0,0-2-2H16V9H41Z"/><path class="cls-11" d="M43,34H40.305a6.024,6.024,0,0,0,2.633-4.165,2.975,2.975,0,0,0,.861-5.22l.908-.908A1,1,0,0,0,45,23V22a8,8,0,0,0-16,0v1a1,1,0,0,0,.293.707l.908.908a2.975,2.975,0,0,0,.864,5.221,6,6,0,0,0,1.688,3.411,5.885,5.885,0,0,0,.938.753H31a5.006,5.006,0,0,0-5,5v8a1,1,0,0,0,1,1H47a1,1,0,0,0,1-1V39A5.006,5.006,0,0,0,43,34Zm-5.306,1.712A.957.957,0,0,1,37,36a1,1,0,0,1-1-1v-.09a5.6,5.6,0,0,0,2,0V35A.974.974,0,0,1,37.694,35.712Zm-5.318-11.75L31,22.586V22a6,6,0,0,1,12,0v.586L41.6,23.991C36.315,23.9,36,22,36,22h0a1,1,0,0,0-2,0A1.8,1.8,0,0,1,32.376,23.962ZM33,25.874a3.962,3.962,0,0,0,2.313-1.523c.982.788,2.7,1.5,5.687,1.628V29a4.025,4.025,0,0,1-2.393,3.67,4.006,4.006,0,0,1-4.436-.833A4.016,4.016,0,0,1,33,29ZM28,39a3,3,0,0,1,3-3h3.184A3,3,0,0,0,36,37.816V46H32V42H30v4H28Zm18,7H44V42H42v4H38V37.819a2.864,2.864,0,0,0,1.108-.693A2.916,2.916,0,0,0,39.818,36H43a3,3,0,0,1,3,3Z"/><path class="cls-11" d="M26,17a3,3,0,0,0-3-3H7a3,3,0,0,0-3,3V28H6V17a1,1,0,0,1,1-1H23a1,1,0,0,1,1,1V33a1,1,0,0,1-1,1H19a1,1,0,0,0-1,1v1.586l-2.293-2.293A1,1,0,0,0,15,34H3a1,1,0,0,1-1-1V12H0V33a3,3,0,0,0,3,3H14.586l3.707,3.707A1,1,0,0,0,20,39V36h3a3,3,0,0,0,3-3Z"/><path class="cls-11" d="M1,10H38V8H2V3A1,1,0,0,1,3,2H39a1,1,0,0,1,1,1V13h2V3a3,3,0,0,0-3-3H3A3,3,0,0,0,0,3V9A1,1,0,0,0,1,10Z"/><rect class="cls-11" x="4" y="4" width="2" height="2"/><rect class="cls-11" x="8" y="4" width="2" height="2"/><rect class="cls-11" x="12" y="4" width="2" height="2"/><rect class="cls-11" x="4" y="30" width="2" height="2"/><rect class="cls-11" x="13" y="20" width="8" height="2"/><rect class="cls-11" x="9" y="24" width="12" height="2"/><rect class="cls-11" x="9" y="28" width="12" height="2"/><rect class="cls-11" x="9" y="20" width="2" height="2"/></g></svg>