<?xml version="1.0" encoding="utf-8"?>
<!-- Generator: Adobe Illustrator 24.0.0, SVG Export Plug-In . SVG Version: 6.00 Build 0)  -->
<svg version="1.1" id="Layer_1" xmlns="http://www.w3.org/2000/svg" xmlns:xlink="http://www.w3.org/1999/xlink" x="0px" y="0px"
	 viewBox="0 0 256 256" enable-background="new 0 0 256 256" xml:space="preserve">
<g>
	<path fill="#CECECE" d="M32.035,212.272c-7.535,0-13.665-6.13-13.665-13.665V74.831c0-7.535,6.13-13.665,13.665-13.665h191.931
		c7.535,0,13.665,6.13,13.665,13.665v123.776c0,7.535-6.13,13.665-13.665,13.665H32.035z"/>
	<g>
		<path fill="#E2E2E2" d="M223.965,61.166h-14.667c7.534,0,13.665,6.13,13.665,13.665v123.776c0,7.534-6.13,13.665-13.665,13.665
			h14.667c7.535,0,13.665-6.13,13.665-13.665V74.831C237.63,67.296,231.5,61.166,223.965,61.166z"/>
	</g>
	<g>
		<path fill="#AFAFAF" d="M32.035,61.166h14.667c-7.534,0-13.665,6.13-13.665,13.665v123.776c0,7.534,6.13,13.665,13.665,13.665
			H32.035c-7.535,0-13.665-6.13-13.665-13.665V74.831C18.37,67.296,24.5,61.166,32.035,61.166z"/>
	</g>
	<path fill="#63BCE7" d="M229.221,74.855v123.728c0,2.916-2.364,5.28-5.28,5.28H32.059c-2.916,0-5.28-2.364-5.28-5.28V74.855
		c0-2.916,2.364-5.28,5.28-5.28h191.882C226.857,69.575,229.221,71.939,229.221,74.855z"/>
	<g>
		<path fill="#63E2E7" d="M223.941,69.575h-14.667c2.916,0,5.28,2.364,5.28,5.28v123.728c0,2.916-2.364,5.28-5.28,5.28h14.667
			c2.916,0,5.28-2.364,5.28-5.28V74.855C229.221,71.939,226.857,69.575,223.941,69.575z"/>
	</g>
	<g>
		<path fill="#6377E7" d="M32.059,69.575h14.667c-2.916,0-5.28,2.364-5.28,5.28v123.728c0,2.916,2.364,5.28,5.28,5.28H32.059
			c-2.916,0-5.28-2.364-5.28-5.28V74.855C26.779,71.939,29.143,69.575,32.059,69.575z"/>
	</g>
	<path fill="#CECECE" d="M128,212.272H8.667l3.053,7.024c2.751,6.329,8.995,10.423,15.896,10.423H128h100.385
		c6.901,0,13.145-4.094,15.896-10.423l3.053-7.024H128z"/>
	<g>
		<path fill="#E2E2E2" d="M232.667,212.272l-3.053,7.024c-2.751,6.329-8.995,10.423-15.896,10.423h14.667
			c6.901,0,13.145-4.094,15.896-10.423l3.053-7.024H232.667z"/>
	</g>
	<g>
		<path fill="#AFAFAF" d="M23.333,212.272l3.053,7.024c2.751,6.329,8.995,10.423,15.896,10.423H27.615
			c-6.901,0-13.145-4.094-15.896-10.423l-3.053-7.024H23.333z"/>
	</g>
	<path fill="#707070" d="M82.442,212.272l4.22,5.388c1.649,2.106,4.175,3.336,6.85,3.336h68.975c2.675,0,5.201-1.23,6.85-3.336
		l4.221-5.388H82.442z"/>
	<circle fill="#CECECE" cx="128" cy="92.569" r="77.261"/>
	<g>
		<path fill="#AFAFAF" d="M65.406,92.569c0-40.196,30.699-73.21,69.928-76.906c-2.415-0.227-4.859-0.356-7.333-0.356
			c-42.67,0-77.261,34.591-77.261,77.261S85.33,169.83,128,169.83c2.474,0,4.918-0.128,7.333-0.356
			C96.104,165.779,65.406,132.765,65.406,92.569z"/>
	</g>
	<g>
		<path fill="#F8AF23" d="M98.447,109.094c11.706,0,22.237-5.029,29.553-13.042c-5.609-10.585-16.737-17.798-29.553-17.798
			c-12.816,0-23.944,7.213-29.553,17.798C76.21,104.065,86.741,109.094,98.447,109.094z"/>
		
			<ellipse transform="matrix(0.9239 -0.3827 0.3827 0.9239 -16.8243 42.5112)" fill="#9E9E9E" cx="98.447" cy="63.546" rx="14.707" ry="14.707"/>
		<path fill="#63BCE7" d="M157.553,109.094c11.706,0,22.237-5.029,29.553-13.042c-5.609-10.585-16.737-17.798-29.553-17.798
			c-12.816,0-23.944,7.213-29.553,17.798C135.317,104.065,145.847,109.094,157.553,109.094z"/>
		
			<ellipse transform="matrix(0.9239 -0.3827 0.3827 0.9239 -12.3251 65.1302)" fill="#9E9E9E" cx="157.553" cy="63.546" rx="14.707" ry="14.707"/>
		<path fill="#F46275" d="M128,144.325c20.11,0,38.201-8.639,50.77-22.405c-9.636-18.185-28.752-30.576-50.77-30.576
			c-22.017,0-41.134,12.391-50.77,30.576C89.799,135.687,107.89,144.325,128,144.325z"/>
		
			<ellipse transform="matrix(0.9239 -0.3827 0.3827 0.9239 -15.5439 54.0135)" fill="#9E9E9E" cx="128" cy="66.079" rx="25.266" ry="25.266"/>
		<g>
			<path fill="#3F3679" d="M245.656,219.894l3.053-7.024c0.202-0.463,0.156-0.998-0.121-1.42c-0.277-0.422-0.749-0.677-1.254-0.677
				h-14.352c3.722-2.766,6.149-7.182,6.149-12.165V74.831c0-8.362-6.803-15.165-15.165-15.165h-24.433
				C187.044,32.627,159.687,13.808,128,13.808S68.956,32.627,56.468,59.666H32.035c-8.362,0-15.165,6.803-15.165,15.165v123.776
				c0,4.983,2.427,9.398,6.149,12.165H8.667c-0.505,0-0.977,0.255-1.254,0.678c-0.277,0.422-0.323,0.957-0.121,1.42l3.053,7.024
				c1.517,3.491,4.013,6.351,7.08,8.325H9.32c-0.829,0-1.5,0.671-1.5,1.5s0.671,1.5,1.5,1.5h18.295h200.77h18.295
				c0.829,0,1.5-0.671,1.5-1.5s-0.671-1.5-1.5-1.5h-8.104C241.644,226.245,244.139,223.385,245.656,219.894z M128,16.808
				c41.775,0,75.761,33.986,75.761,75.761c0,41.775-33.986,75.761-75.761,75.761s-75.761-33.986-75.761-75.761
				C52.239,50.794,86.225,16.808,128,16.808z M203.755,71.075h20.185c2.084,0,3.78,1.696,3.78,3.78v123.728
				c0,2.084-1.696,3.78-3.78,3.78H32.059c-2.084,0-3.78-1.696-3.78-3.78V74.855c0-2.084,1.696-3.78,3.78-3.78h20.185
				c-1.943,6.838-3.006,14.042-3.006,21.494c0,43.429,35.332,78.761,78.761,78.761s78.761-35.332,78.761-78.761
				C206.761,85.117,205.698,77.912,203.755,71.075z M19.87,198.607V74.831c0-6.708,5.457-12.165,12.165-12.165h23.117
				c-0.73,1.771-1.392,3.576-1.993,5.409H32.059c-3.739,0-6.78,3.042-6.78,6.78v123.728c0,3.738,3.042,6.78,6.78,6.78h191.882
				c3.739,0,6.78-3.042,6.78-6.78V74.855c0-3.739-3.042-6.78-6.78-6.78h-21.099c-0.601-1.833-1.264-3.638-1.993-5.409h23.117
				c6.708,0,12.165,5.457,12.165,12.165v123.776c0,6.708-5.457,12.165-12.165,12.165h-50.407H82.442H32.035
				C25.327,210.772,19.87,205.315,19.87,198.607z M170.478,213.772l-2.321,2.963c-1.375,1.754-3.441,2.76-5.669,2.76H93.513
				c-2.229,0-4.295-1.006-5.669-2.76l-2.321-2.963H170.478z M228.385,228.219H27.615c-4.787,0-9.22-2.157-12.18-5.724h29.14
				c0.829,0,1.5-0.671,1.5-1.5s-0.671-1.5-1.5-1.5H13.478c-0.132-0.263-0.264-0.526-0.382-0.798l-2.141-4.926h21.081h49.677
				l3.77,4.813c1.947,2.485,4.874,3.911,8.031,3.911h68.975c3.157,0,6.084-1.425,8.031-3.911l3.77-4.813h49.677h21.081l-2.141,4.926
				c-0.118,0.272-0.25,0.535-0.382,0.798h-31.099c-0.829,0-1.5,0.671-1.5,1.5s0.671,1.5,1.5,1.5h29.141
				C237.605,226.063,233.172,228.219,228.385,228.219z"/>
			<path fill="#3F3679" d="M65.22,219.496H54.845c-0.829,0-1.5,0.671-1.5,1.5s0.671,1.5,1.5,1.5H65.22c0.829,0,1.5-0.671,1.5-1.5
				S66.048,219.496,65.22,219.496z"/>
			<path fill="#3F3679" d="M201.155,219.496H190.78c-0.829,0-1.5,0.671-1.5,1.5s0.671,1.5,1.5,1.5h10.375c0.829,0,1.5-0.671,1.5-1.5
				S201.984,219.496,201.155,219.496z"/>
			<path fill="#3F3679" d="M27.323,239.192H9.32c-0.829,0-1.5,0.671-1.5,1.5s0.671,1.5,1.5,1.5h18.003c0.829,0,1.5-0.671,1.5-1.5
				S28.152,239.192,27.323,239.192z"/>
			<path fill="#3F3679" d="M246.68,239.192h-18.003c-0.829,0-1.5,0.671-1.5,1.5s0.671,1.5,1.5,1.5h18.003c0.829,0,1.5-0.671,1.5-1.5
				S247.509,239.192,246.68,239.192z"/>
			<path fill="#3F3679" d="M218.479,239.192H37.521c-0.829,0-1.5,0.671-1.5,1.5s0.671,1.5,1.5,1.5h180.959
				c0.829,0,1.5-0.671,1.5-1.5S219.308,239.192,218.479,239.192z"/>
			<path fill="#3F3679" d="M67.786,97.063c4.74,5.191,10.703,9.065,17.306,11.31c-3.569,3.796-6.671,8.099-9.186,12.846
				c-0.297,0.56-0.21,1.246,0.217,1.713c13.284,14.549,32.192,22.894,51.877,22.894s38.594-8.344,51.877-22.894
				c0.427-0.468,0.514-1.154,0.217-1.713c-2.515-4.746-5.616-9.048-9.183-12.843c6.605-2.245,12.558-6.115,17.303-11.313
				c0.427-0.468,0.514-1.154,0.217-1.713c-4.811-9.079-13.232-15.418-22.962-17.675c4.941-2.78,8.291-8.067,8.291-14.129
				c0-8.937-7.271-16.208-16.208-16.208c-2.994,0-5.878,0.816-8.409,2.357c-4.901-6.311-12.554-10.383-21.144-10.383
				c-8.592,0-16.245,4.074-21.146,10.386c-2.532-1.54-5.419-2.36-8.407-2.36c-8.937,0-16.208,7.271-16.208,16.208
				c0,6.062,3.35,11.349,8.291,14.129c-9.73,2.256-18.151,8.596-22.962,17.675C67.271,95.909,67.358,96.595,67.786,97.063z
				 M128,142.825c-18.49,0-36.264-7.69-48.938-21.136c9.873-17.821,28.526-28.844,48.938-28.844s39.065,11.023,48.938,28.844
				C164.264,135.135,146.49,142.825,128,142.825z M185.267,95.821c-4.622,4.791-10.381,8.284-16.733,10.172
				c-8.309-7.883-18.777-13.21-30.177-15.234c5.006-2.108,9.236-5.7,12.149-10.218c2.3-0.518,4.668-0.787,7.048-0.787
				C169.052,79.754,179.574,85.883,185.267,95.821z M157.553,50.339c7.283,0,13.208,5.925,13.208,13.208
				s-5.925,13.208-13.208,13.208c-1.615,0-3.174-0.299-4.659-0.861c1.203-3.041,1.872-6.35,1.872-9.813
				c0-5.094-1.432-9.86-3.912-13.917C152.878,50.966,155.174,50.339,157.553,50.339z M128,42.313
				c13.104,0,23.766,10.662,23.766,23.766S141.104,89.845,128,89.845s-23.766-10.661-23.766-23.766S114.896,42.313,128,42.313z
				 M85.239,63.546c0-7.283,5.925-13.208,13.208-13.208c2.375,0,4.672,0.633,6.696,1.827c-2.479,4.057-3.909,8.821-3.909,13.913
				c0,3.465,0.669,6.774,1.873,9.816c-1.484,0.562-3.044,0.859-4.66,0.859C91.164,76.754,85.239,70.829,85.239,63.546z
				 M98.447,79.754c2.38,0,4.749,0.268,7.047,0.785c2.913,4.518,7.143,8.111,12.15,10.219c-11.406,2.025-21.878,7.356-30.189,15.245
				c-0.004-0.001-0.007-0.003-0.011-0.005c-6.341-1.888-12.097-5.397-16.71-10.179C76.426,85.883,86.948,79.754,98.447,79.754z"/>
		</g>
	</g>
</g>
</svg>
