<?xml version="1.0" encoding="iso-8859-1"?>
<!-- Generator: Adobe Illustrator 19.0.0, SVG Export Plug-In . SVG Version: 6.00 Build 0)  -->
<svg xmlns="http://www.w3.org/2000/svg" xmlns:xlink="http://www.w3.org/1999/xlink" version="1.1" id="Layer_1" x="0px" y="0px" viewBox="0 0 512 512" style="enable-background:new 0 0 512 512;" xml:space="preserve">
<path style="fill:#485360;" d="M430.619,429.87h59.467c7.639,0,13.829-6.193,13.829-13.832s-6.19-13.832-13.829-13.832H388.988  H274.989h-37.976h-63.122H21.916c-7.64,0-13.832,6.193-13.832,13.832s6.191,13.832,13.832,13.832h151.976h63.122h37.976h122.622  h7.138"/>
<path style="fill:#FC7E00;" d="M354.869,95.962c0-7.639-6.19-13.832-13.829-13.832h-18.101h-82.997h-68.979  c-7.64,0-13.832,6.193-13.832,13.832s6.191,13.832,13.832,13.832h68.979h82.997h18.101  C348.677,109.793,354.869,103.601,354.869,95.962z"/>
<path style="fill:#EA4E18;" d="M178.634,212.555h-4.742H21.916c-7.64,0-13.832,6.192-13.832,13.832  c0,7.639,6.191,13.832,13.832,13.832h151.976h4.742v-27.663H178.634z"/>
<path style="fill:#BAB0A8;" d="M490.086,154.291H388.988h-55.623v27.663h55.623h101.098c7.639,0,13.829-6.192,13.829-13.832  C503.916,160.483,497.725,154.291,490.086,154.291z"/>
<rect x="23.897" y="240.22" style="fill:#F65C1D;" width="154.732" height="161.986"/>
<rect x="333.36" y="181.959" style="fill:#BAB0A8;" width="154.732" height="220.257"/>
<rect x="333.36" y="154.29" style="fill:#9B7D68;" width="54.973" height="27.663"/>
<rect x="333.36" y="181.959" style="fill:#B29D94;" width="54.973" height="220.257"/>
<rect x="178.629" y="109.794" style="fill:#FE9900;" width="154.732" height="292.411"/>
<path style="fill:#364351;" d="M63.057,416.038c0-7.639,6.191-13.832,13.832-13.832H21.916c-7.64,0-13.832,6.193-13.832,13.832  s6.191,13.832,13.832,13.832h54.973C69.248,429.87,63.057,423.677,63.057,416.038z"/>
<path style="fill:#F65C1D;" d="M212.103,95.962c0-7.639,6.191-13.832,13.832-13.832h-54.973c-7.64,0-13.832,6.193-13.832,13.832  s6.191,13.832,13.832,13.832h54.973C218.295,109.793,212.103,103.601,212.103,95.962z"/>
<path style="fill:#E8331A;" d="M63.057,226.387c0-7.639,6.191-13.832,13.832-13.832H21.916c-7.64,0-13.832,6.193-13.832,13.832  c0,7.639,6.191,13.832,13.832,13.832h54.973C69.248,240.219,63.057,234.026,63.057,226.387z"/>
<rect x="23.897" y="240.22" style="fill:#F43E21;" width="54.973" height="161.986"/>
<rect x="178.629" y="109.794" style="fill:#EF7A06;" width="54.973" height="292.411"/>
<g>
	<path style="fill:#231F20;" d="M496.185,395.003V189.157c9.122-2.651,15.815-11.069,15.815-21.034   c0-12.084-9.83-21.916-21.914-21.916H341.45v-28.35c11.892-0.222,21.502-9.95,21.502-21.895c0-12.084-9.83-21.916-21.914-21.916   H170.962c-12.084,0-21.916,9.831-21.916,21.916c0,11.945,9.611,21.672,21.503,21.895v86.614H21.916   C9.831,204.471,0,214.303,0,226.387c0,9.965,6.693,18.383,15.815,21.034v147.582C6.693,397.655,0,406.072,0,416.038   c0,12.084,9.831,21.916,21.916,21.916h382.834c4.465,0,8.084-3.618,8.084-8.084s-3.62-8.084-8.084-8.084H21.916   c-3.169,0-5.747-2.578-5.747-5.747s2.578-5.747,5.747-5.747h1.983h154.735h154.733h154.735h1.985c3.167,0,5.745,2.578,5.745,5.747   s-2.578,5.747-5.745,5.747h-59.469c-4.465,0-8.084,3.618-8.084,8.084s3.62,8.084,8.084,8.084h59.467   c12.083,0,21.914-9.831,21.914-21.916C512,406.072,505.307,397.654,496.185,395.003z M490.086,162.375   c3.167,0,5.745,2.578,5.745,5.747c0,3.169-2.578,5.747-5.745,5.747h-1.986H341.45v-11.495H490.086z M165.214,95.962   c0-3.169,2.578-5.747,5.747-5.747h170.077c3.168,0,5.745,2.578,5.745,5.747s-2.577,5.747-5.745,5.747h-7.672H178.634h-7.671   C167.793,101.709,165.214,99.131,165.214,95.962z M21.916,220.64H170.55v11.495H23.899h-1.983c-3.169,0-5.747-2.578-5.747-5.747   C16.168,223.218,18.747,220.64,21.916,220.64z M31.983,248.303H170.55v145.819H31.983V248.303z M186.718,240.219v-27.663v-94.678   h138.564v36.412v27.663v212.168H186.718V240.219z M341.45,394.122V190.038h138.567v204.084H341.45z"/>
	<path style="fill:#231F20;" d="M256,164.227c-4.465,0-8.084,3.62-8.084,8.084v40.96c0,4.465,3.62,8.084,8.084,8.084   c4.465,0,8.084-3.62,8.084-8.084v-40.96C264.084,167.847,260.465,164.227,256,164.227z"/>
	<path style="fill:#231F20;" d="M397.799,236.388c-4.466,0-8.084,3.62-8.084,8.084v40.96c0,4.466,3.618,8.084,8.084,8.084   s8.084-3.618,8.084-8.084v-40.96C405.883,240.007,402.264,236.388,397.799,236.388z"/>
	<path style="fill:#231F20;" d="M423.669,236.388c-4.466,0-8.084,3.62-8.084,8.084v40.96c0,4.466,3.618,8.084,8.084,8.084   s8.084-3.618,8.084-8.084v-40.96C431.753,240.007,428.133,236.388,423.669,236.388z"/>
	<path style="fill:#231F20;" d="M75.397,294.652c-4.466,0-8.084,3.618-8.084,8.084v40.96c0,4.466,3.618,8.084,8.084,8.084   s8.084-3.618,8.084-8.084v-40.96C83.481,298.272,79.862,294.652,75.397,294.652z"/>
	<path style="fill:#231F20;" d="M101.266,294.652c-4.466,0-8.084,3.618-8.084,8.084v40.96c0,4.466,3.618,8.084,8.084,8.084   c4.466,0,8.084-3.618,8.084-8.084v-40.96C109.35,298.272,105.732,294.652,101.266,294.652z"/>
	<path style="fill:#231F20;" d="M127.136,294.652c-4.466,0-8.084,3.618-8.084,8.084v40.96c0,4.466,3.618,8.084,8.084,8.084   c4.466,0,8.084-3.618,8.084-8.084v-40.96C135.22,298.272,131.601,294.652,127.136,294.652z"/>
</g>
<g>
</g>
<g>
</g>
<g>
</g>
<g>
</g>
<g>
</g>
<g>
</g>
<g>
</g>
<g>
</g>
<g>
</g>
<g>
</g>
<g>
</g>
<g>
</g>
<g>
</g>
<g>
</g>
<g>
</g>
</svg>
